<?xml version="1.0" encoding="utf-8"?>
<!-- Generator: Adobe Illustrator 26.0.3, SVG Export Plug-In . SVG Version: 6.00 Build 0)  -->
<svg version="1.0" id="katman_1" xmlns="http://www.w3.org/2000/svg" xmlns:xlink="http://www.w3.org/1999/xlink" x="0px" y="0px"
	 viewBox="0 0 800 600" style="enable-background:new 0 0 800 600;" xml:space="preserve">
<style type="text/css">
	.st0{fill:url(#Path_00000085230961558337436620000003706524606061942971_);}
	.st1{fill:url(#Path_00000163788968075262518820000000622220202598309539_);}
	.st2{fill:#00B5EB;}
	.st3{fill:#06F922;}
	.st4{fill:#1D1D1B;}
</style>
<g id="Artboard" transform="translate(-114.000000, -95.000000)">
	<g id="Delta.Exchange_Final_Logo-05" transform="translate(114.000000, 95.000000)">
		
			<linearGradient id="Path_00000078763789203015310220000015209875884827259531_" gradientUnits="userSpaceOnUse" x1="13.3309" y1="585.2928" x2="9.5112" y2="586.6795" gradientTransform="matrix(23.0686 0 0 -17.3007 -28.4732 10401.2803)">
			<stop  offset="0" style="stop-color:#1C53A4"/>
			<stop  offset="1" style="stop-color:#00B5EB"/>
		</linearGradient>
		<polygon id="Path" style="fill:url(#Path_00000078763789203015310220000015209875884827259531_);" points="166.3,268.6 
			228.3,299.6 290.4,268.6 166.3,206.6 		"/>
		
			<linearGradient id="Path_00000183971585436867426760000015895727591972750737_" gradientUnits="userSpaceOnUse" x1="13.2337" y1="583.5438" x2="9.5394" y2="582.1049" gradientTransform="matrix(23.0686 0 0 -17.3007 -28.4732 10418.5811)">
			<stop  offset="0" style="stop-color:#1C53A4"/>
			<stop  offset="1" style="stop-color:#00B5EB"/>
		</linearGradient>
		
			<polygon id="Path_00000073685084811105547500000011690263621919104690_" style="fill:url(#Path_00000183971585436867426760000015895727591972750737_);" points="
			166.3,330.6 166.3,392.6 290.4,330.6 228.3,299.6 		"/>
		<polygon id="Path_00000052820590226354847040000000396438030830318009_" class="st2" points="290.4,330.6 290.4,268.6 
			228.3,299.6 		"/>
		<polygon id="Path_00000093159821423518799390000011807570884285645952_" class="st3" points="166.3,268.6 166.3,330.6 
			104.3,299.6 		"/>
		<path id="Shape" class="st4" d="M352.4,235.4h23.7c5.3-0.1,10.6,1.1,15.4,3.4c4.3,2.1,8,5.4,10.5,9.5c5,8.8,5,19.6,0,28.4
			c-2.5,4.1-6.1,7.4-10.5,9.5c-4.8,2.3-10.1,3.5-15.4,3.4h-23.7V235.4z M375.6,281c3.6,0.1,7.2-0.7,10.5-2.3c2.9-1.4,5.3-3.7,7-6.5
			c3.2-6.1,3.2-13.5,0-19.6c-1.6-2.8-4.1-5.1-7-6.5c-3.3-1.6-6.8-2.4-10.5-2.3h-13.2V281H375.6z"/>
		<path id="Shape_00000145774292370943333210000006937391709778041244_" class="st4" d="M452.5,272h-32.4c0.5,2.9,2.1,5.5,4.5,7.2
			c2.6,1.8,5.7,2.8,8.9,2.7c4.2,0.1,8.3-1.5,11.2-4.5l5.2,6c-1.9,2.2-4.3,4-7.1,5c-7,2.6-14.8,2.2-21.6-1c-3.3-1.7-6.1-4.3-8-7.5
			c-3.7-6.8-3.7-15,0-21.8c1.8-3.2,4.4-5.8,7.6-7.5c3.4-1.8,7.2-2.8,11-2.7c3.8-0.1,7.5,0.9,10.8,2.7c3.1,1.8,5.7,4.4,7.4,7.5
			c1.8,3.4,2.8,7.3,2.7,11.2C452.7,269.8,452.7,270.8,452.5,272z M423.9,258.2c-2.2,1.9-3.6,4.5-3.9,7.3h23.4
			c-0.3-2.8-1.7-5.4-3.8-7.3c-2.2-1.9-5-2.9-7.9-2.8C428.9,255.4,426.1,256.4,423.9,258.2L423.9,258.2z"/>
		<polygon id="Path_00000090978915416807961980000008249996266925395887_" class="st4" points="460.4,232.1 470.1,232.1 
			470.1,289.6 460.4,289.6 		"/>
		<path id="Path_00000166659095512741723840000006202476416049292221_" class="st4" d="M508.1,287.3c-1.2,1-2.6,1.7-4.1,2.1
			c-1.7,0.5-3.5,0.7-5.2,0.7c-3.8,0.2-7.6-1-10.5-3.5c-2.6-2.8-4-6.5-3.7-10.4v-20h-6.8v-7.7h6.8v-9.4h9.7v9.4h11.1v7.7h-11.1v19.7
			c-0.1,1.7,0.4,3.3,1.5,4.6c1.1,1.1,2.7,1.7,4.3,1.6c2,0.1,3.9-0.6,5.4-1.7L508.1,287.3z"/>
		<path id="Shape_00000049213874010166325200000015383480445207714207_" class="st4" d="M544.3,252.1c3.2,2.9,4.8,7.3,4.8,13.2v24.2
			H540v-5c-1.2,1.9-3,3.3-5.1,4.1c-2.5,1-5.2,1.5-7.9,1.4c-2.8,0.1-5.6-0.5-8.1-1.6c-2.2-0.9-4-2.5-5.4-4.4
			c-1.3-1.9-1.9-4.1-1.9-6.4c-0.1-3.5,1.4-6.8,4.1-8.9c2.8-2.3,7.1-3.4,13.1-3.4h10.7v-0.6c0.2-2.5-0.8-4.9-2.6-6.6
			c-2.2-1.7-4.9-2.5-7.7-2.3c-2.3,0-4.6,0.4-6.8,1.1c-2.1,0.6-4,1.7-5.7,3l-3.8-7.1c2.4-1.7,5-3,7.8-3.8c3.1-0.9,6.4-1.3,9.7-1.3
			C536.4,247.7,541.1,249.2,544.3,252.1z M535.5,281.4c1.8-1.1,3.3-2.8,4-4.8v-4.8h-10c-5.6,0-8.3,1.8-8.3,5.5
			c-0.1,1.7,0.7,3.2,2.1,4.2c1.7,1.1,3.8,1.7,5.8,1.6C531.3,283.1,533.5,282.5,535.5,281.4L535.5,281.4z"/>
		<path id="Path_00000021826164969776813170000013538355201765443242_" class="st4" d="M558.6,288.3c-2.3-2.1-2.7-5.5-1.1-8.2
			c1.6-2.6,4.9-3.7,7.8-2.6c2.9,1.1,4.6,4.1,4,7.2s-3.2,5.3-6.3,5.3C561.4,290.1,559.8,289.4,558.6,288.3L558.6,288.3z"/>
		<polygon id="Path_00000182529987157382323810000010076100093897457067_" class="st4" points="389.8,360.2 389.8,363.7 
			352.4,363.7 352.4,309.5 388.6,309.5 388.6,313 356.3,313 356.3,334.3 385.2,334.3 385.2,337.8 356.3,337.8 356.3,360 		"/>
		<polygon id="Path_00000000214982270712407220000013450416653554878347_" class="st4" points="427.9,363.7 414.1,345.7 
			400.1,363.7 395.7,363.7 411.8,342.9 396.6,323.3 401,323.3 414,340.1 427,323.3 431.3,323.3 416.2,342.9 432.4,363.7 		"/>
		<path id="Path_00000132075762764322960320000011250616823658391688_" class="st4" d="M444.9,361.4c-3.1-1.7-5.6-4.2-7.3-7.3
			c-3.5-6.6-3.5-14.6,0-21.2c1.7-3.1,4.2-5.6,7.3-7.3c3.2-1.7,6.8-2.6,10.5-2.6c3.1,0,6.1,0.6,8.9,1.9c2.6,1.2,4.8,3.1,6.5,5.5
			l-2.9,2.1c-1.3-1.9-3.1-3.4-5.2-4.4c-2.2-1-4.6-1.5-7.1-1.5c-3,0-5.9,0.7-8.5,2.1c-2.5,1.4-4.5,3.5-5.9,6
			c-2.8,5.6-2.8,12.2,0,17.8c1.4,2.5,3.4,4.6,5.9,6c2.6,1.5,5.5,2.2,8.5,2.1c2.4,0,4.9-0.5,7.1-1.5c2.1-1,4-2.6,5.4-4.5l2.9,2.1
			c-1.6,2.4-3.9,4.3-6.5,5.5c-2.8,1.3-5.8,1.9-8.9,1.9C451.8,364.2,448.1,363.2,444.9,361.4z"/>
		<path id="Path_00000110468344531635416530000008715080743897746614_" class="st4" d="M510.2,327.4c3,2.9,4.4,7.2,4.4,12.7v23.6
			h-3.9v-23.3c0.3-3.8-1-7.5-3.5-10.4c-2.6-2.5-6.1-3.7-9.6-3.5c-4.2-0.2-8.2,1.3-11.2,4.3c-2.8,3.1-4.3,7.2-4.1,11.5v21.5h-3.9
			v-57.5h3.9v25.5c1.4-2.7,3.5-5,6.2-6.5c3-1.6,6.3-2.4,9.7-2.3C502.6,322.8,506.9,324.4,510.2,327.4z"/>
		<path id="Shape_00000088821321873078948990000006257583959724389522_" class="st4" d="M552.5,326.9c2.7,2.5,4,6.3,4,11.3v25.6
			h-3.7v-7.2c-1.3,2.4-3.3,4.3-5.6,5.5c-2.8,1.4-5.8,2.1-8.9,2c-3.8,0.2-7.6-0.9-10.6-3.2c-2.4-2-3.8-5-3.9-8.2
			c-0.1-3.2,1.3-6.2,3.6-8.3c2.4-2.1,6.2-3.1,11.5-3.1h13.9V338c0.2-3.2-0.9-6.3-3.1-8.6c-2.5-2.1-5.7-3.2-8.9-2.9
			c-2.6,0-5.2,0.5-7.7,1.4c-2.3,0.8-4.4,2.1-6.2,3.7l-1.9-2.8c2.1-1.9,4.6-3.3,7.3-4.2c2.9-1,5.9-1.5,8.9-1.5
			C546,323,549.8,324.3,552.5,326.9z M547.2,358.6c2.4-1.6,4.3-4,5.3-6.7v-7.6h-13.8c-4,0-6.9,0.7-8.7,2.2c-1.8,1.5-2.8,3.7-2.7,6
			c0,2.5,1.1,4.8,3.2,6.2c2.4,1.7,5.3,2.5,8.3,2.3C541.8,361,544.8,360.1,547.2,358.6L547.2,358.6z"/>
		<path id="Path_00000082340651888388049050000012714370786810505623_" class="st4" d="M597.6,327.4c2.9,2.9,4.4,7.2,4.4,12.7v23.6
			h-3.9v-23.3c0.3-3.8-1-7.5-3.5-10.4c-2.6-2.5-6.1-3.7-9.6-3.5c-4.2-0.2-8.2,1.3-11.2,4.3c-2.8,3.1-4.3,7.2-4.1,11.5v21.5h-3.9
			v-40.5h3.7v8.7c1.4-2.8,3.5-5.1,6.2-6.7c3-1.7,6.4-2.5,9.8-2.4C590,322.8,594.4,324.4,597.6,327.4z"/>
		<path id="Shape_00000174602092725031915250000011888319460917101242_" class="st4" d="M649.5,323.3v36.1c0,6.7-1.6,11.7-4.9,14.9
			c-3.2,3.2-8.2,4.8-14.7,4.8c-3.6,0-7.1-0.6-10.5-1.7c-3-1-5.7-2.6-8-4.7l2.1-2.9c2.1,1.9,4.6,3.4,7.3,4.3c2.9,1,6,1.6,9.1,1.5
			c5.4,0,9.3-1.3,11.9-3.8c2.6-2.5,3.9-6.5,3.9-11.9v-6.8c-1.6,2.9-4,5.2-6.9,6.8c-3.1,1.6-6.5,2.4-9.9,2.4c-3.6,0-7.1-0.8-10.3-2.5
			c-3-1.6-5.5-4-7.2-7c-3.5-6.3-3.5-14,0-20.3c1.7-3,4.2-5.4,7.2-7c3.2-1.7,6.7-2.5,10.3-2.5c3.5-0.1,7,0.8,10.1,2.5
			c2.9,1.6,5.3,4,6.9,7v-9.1L649.5,323.3z M637.7,356.7c2.5-1.3,4.5-3.3,5.9-5.7c1.5-2.6,2.2-5.5,2.1-8.4c0.1-2.9-0.7-5.8-2.1-8.4
			c-1.4-2.4-3.5-4.4-5.9-5.7c-5.3-2.7-11.7-2.7-17,0c-2.4,1.3-4.5,3.3-5.9,5.7c-1.5,2.5-2.2,5.4-2.1,8.4c-0.1,2.9,0.7,5.8,2.1,8.4
			c1.4,2.4,3.4,4.4,5.9,5.7C626,359.5,632.3,359.5,637.7,356.7L637.7,356.7z"/>
		<path id="Shape_00000174576524947291127570000017576002122020852102_" class="st4" d="M695.2,344.5h-34.8c0.1,3,0.9,5.9,2.4,8.4
			c1.5,2.4,3.6,4.4,6.1,5.7c2.7,1.4,5.7,2.1,8.7,2c2.5,0,5-0.5,7.3-1.4c2.2-0.9,4.1-2.4,5.6-4.2l2.2,2.6c-1.8,2.1-4.1,3.8-6.6,4.9
			c-6.3,2.5-13.4,2.2-19.4-0.9c-3.1-1.7-5.7-4.2-7.4-7.3c-1.8-3.2-2.8-6.9-2.7-10.6c-0.1-3.7,0.8-7.3,2.5-10.6c1.6-3,4-5.6,7-7.3
			c6.1-3.5,13.6-3.5,19.8,0c3,1.7,5.4,4.2,7,7.2c1.7,3.2,2.6,6.8,2.5,10.5L695.2,344.5z M668.3,328.3c-2.3,1.3-4.1,3.1-5.5,5.3
			c-1.4,2.4-2.2,5-2.4,7.8h31c-0.1-2.7-0.9-5.4-2.3-7.7c-2.8-4.6-7.8-7.4-13.2-7.3C673.3,326.4,670.6,327,668.3,328.3L668.3,328.3z"
			/>
	</g>
</g>
</svg>
